# xmcd
#
# Track frame offsets: 
#        150
#        16153
#        30754
#        48021
#        62417
#        80080
#        98876
#        117893
#        135208
#        147349
#        163897
#
# Disc length: 2402 seconds
#
# Revision: 0
# Processed by: cddbd v1.5.2PL0 Copyright (c) Steve Scherf et al.
# Submitted via: ExactAudioCopy v1.3
#
DISCID=7e09600b
DTITLE=Ilaria Graziano and Francesco Forni - Twinkle Twinkle
DYEAR=2018
DGENRE=
TTITLE0=Chains
TTITLE1=Leftovers
TTITLE2=Be Mine
TTITLE3=Sospesi
TTITLE4=Growing Up
TTITLE5=Your Eyes On Me
TTITLE6=Diario
TTITLE7=Solo un attimo
TTITLE8=The Coldest Night
TTITLE9=La glace et la neige
TTITLE10=Passaggi
EXTD=
EXTT0=
EXTT1=
EXTT2=
EXTT3=
EXTT4=
EXTT5=
EXTT6=
EXTT7=
EXTT8=
EXTT9=
EXTT10=
PLAYORDER=
